Coordinates
version=1
nRows=22
nColumns=24
inDegrees=yes

Units are S.I. units (second, meters, Newtons, ...)
Angles are in degrees.

endheader
time	pelvis_tilt	pelvis_list	pelvis_rotation	pelvis_tx	pelvis_ty	pelvis_tz	hip_flexion_r	hip_adduction_r	hip_rotation_r	knee_angle_r	ankle_angle_r	subtalar_angle_r	mtp_angle_r	hip_flexion_l	hip_adduction_l	hip_rotation_l	knee_angle_l	ankle_angle_l	subtalar_angle_l	mtp_angle_l	lumbar_extension	lumbar_bending	lumbar_rotation
      3.18000000	     -9.92014640	     -5.60953597	      6.68384580	     -1.64456450	     -0.03324400	      0.67955373	     30.41319259	      2.81785482	     -1.36835794	    -33.87050081	      3.47785027	     -3.94060824	     14.35274633	     15.43823783	     -4.32076306	      1.95002881	    -61.59892557	    -20.64006503	      3.21947548	     23.55352973	      8.39339529	     13.15074372	     -7.74402636
      3.18500000	     -9.88973075	     -5.58816838	      6.48594499	     -1.63733569	     -0.03194916	      0.68009890	     29.69165531	      2.95885710	     -1.30446277	    -33.46835175	      3.84275143	     -3.71791525	     14.04330803	     16.51871782	     -4.27605206	      1.68140991	    -62.85404167	    -20.13389496	      3.56094267	     24.48769853	      8.27377962	     13.18234492	     -7.30912985
      3.19000000	     -9.82160617	     -5.54228443	      6.27600426	     -1.63006298	     -0.03059277	      0.68066329	     28.89566246	      3.08524304	     -1.19812198	    -33.00588929	      4.18619784	     -3.51666436	     13.98138388	     17.53325617	     -4.23281379	      1.36460570	    -63.99930410	    -19.71171653	      3.76694745	     25.21002512	      8.12342896	     13.18261663	     -6.94764954
      3.19500000	     -9.74331821	     -5.52705086	      6.12522212	     -1.62279378	     -0.02919087	      0.68103976	     28.05866973	      3.19658942	     -1.16665209	    -32.47856227	      4.45792474	     -3.33327595	     14.00448354	     18.54787232	     -4.19054334	      1.10508207	    -65.06834830	    -19.37940216	      3.70559951	     25.55730246	      7.98804843	     13.22044619	     -6.59525693
      3.20000000	     -9.73557052	     -5.51817963	      5.91346998	     -1.61556744	     -0.02792207	      0.68171049	     27.30494004	      3.37222727	     -1.01800672	    -31.95645030	      4.69899254	     -3.33766285	     13.77620045	     19.62210726	     -4.19777395	      0.84395173	    -66.03417293	    -19.13522585	      3.82022234	     26.40999409	      7.91391405	     13.23277512	     -6.25377911
      3.20500000	     -9.66823131	     -5.49777801	      5.78285842	     -1.60836027	     -0.02656050	      0.68207782	     26.45656983	      3.46964897	     -0.96461431	    -31.38050938	      4.92948121	     -3.18870207	     13.78218300	     20.63445490	     -4.13906380	      0.64530207	    -66.92394769	    -18.89521688	      3.64695086	     26.64441918	      7.79357019	     13.25026840	     -5.94248676
      3.21000000	     -9.65278371	     -5.49397529	      5.59051177	     -1.60119077	     -0.02533002	      0.68264243	     25.67381157	      3.62888468	     -0.83279702	    -30.80793197	      5.11579279	     -3.21126621	     13.63399051	     21.69103521	     -4.13839087	      0.39649551	    -67.73335285	    -18.66393821	      3.45232833	     26.97600062	      7.71370726	     13.27197999	     -5.59061025
      3.21500000	     -9.63398943	     -5.48252587	      5.42682569	     -1.59398695	     -0.02412167	      0.68315015	     24.86474587	      3.76998689	     -0.67619389	    -30.20600998	      5.32683483	     -3.21619090	     13.44340831	     22.72544852	     -4.11599574	      0.17995024	    -68.44407106	    -18.43632081	      3.16908776	     27.22258929	      7.64769498	     13.27750894	     -5.31815177
      3.22000000	     -9.59810135	     -5.46672850	      5.29361451	     -1.58679876	     -0.02294302	      0.68356315	     24.03078656	      3.87828550	     -0.56812549	    -29.58742553	      5.52376681	     -3.16148994	     13.39445347	     23.72623776	     -4.06621238	      0.01441417	    -69.06810383	    -18.15337233	      2.87528247	     27.36756963	      7.56821254	     13.27972584	     -5.06553829
      3.22500000	     -9.60365795	     -5.45054167	      5.08447318	     -1.57962226	     -0.02186355	      0.68417205	     23.24550233	      4.04275075	     -0.33479573	    -28.97139659	      5.66444207	     -3.34252169	     13.07388256	     24.75119701	     -4.06411792	     -0.23281238	    -69.61162368	    -17.88433454	      2.50149088	     27.38668827	      7.51128582	     13.27644598	     -4.73626974
      3.23000000	     -9.58277686	     -5.43164631	      4.93947903	     -1.57246576	     -0.02081758	      0.68460006	     22.42673682	      4.15031985	     -0.18142438	    -28.34680800	      5.83283942	     -3.32515979	     12.97948691	     25.73194162	     -4.01198583	     -0.37599423	    -70.06266763	    -17.56690586	      2.18174019	     27.46332188	      7.43818598	     13.26965673	     -4.48846271
      3.23500000	     -9.59022746	     -5.37545640	      4.68448609	     -1.56527355	     -0.01984241	      0.68531033	     21.63997611	      4.29992462	      0.15942985	    -27.73543568	      5.96176063	     -3.59344040	     12.49756438	     26.70128564	     -3.99541657	     -0.64965328	    -70.42864613	    -17.21181914	      1.82524151	     27.23124376	      7.36562120	     13.21988134	     -4.11590468
      3.24000000	     -9.57562543	     -5.35232985	      4.47661113	     -1.55813716	     -0.01893749	      0.68584796	     20.84023034	      4.42818007	      0.37047736	    -27.12826134	      6.11190367	     -3.65167834	     12.23424142	     27.64523491	     -3.97918565	     -0.83722542	    -70.71991278	    -16.86176438	      1.46934694	     27.10639330	      7.27059151	     13.21287777	     -3.76077534
      3.24500000	     -9.57495793	     -5.28529646	      4.25747850	     -1.55094399	     -0.01808696	      0.68646384	     20.03850922	      4.52551636	      0.68612879	    -26.50491983	      6.28376321	     -3.74666005	     12.03417791	     28.56557523	     -3.93055226	     -1.02833524	    -70.90506340	    -16.52733973	      1.18041865	     27.00726863	      7.19535628	     13.14050018	     -3.50385227
      3.25000000	     -9.56371030	     -5.17838398	      3.98247299	     -1.54381534	     -0.01726359	      0.68714493	     19.25039718	      4.60366007	      1.06030892	    -25.92396701	      6.38431717	     -3.95042041	     11.65114226	     29.43498451	     -3.86869279	     -1.27489907	    -70.99949881	    -16.11083602	      0.88007462	     26.72165678	      7.07005985	     13.03835710	     -3.05731163
      3.25500000	     -9.55205336	     -5.07148231	      3.72023758	     -1.53667239	     -0.01651632	      0.68780764	     18.45637708	      4.66611237	      1.43558462	    -25.33666107	      6.54134350	     -4.06707036	     11.30814389	     30.28537977	     -3.80705689	     -1.49297584	    -71.01078515	    -15.70097290	      0.62825637	     26.43206415	      6.95053445	     12.92855069	     -2.69877540
      3.26000000	     -9.50721951	     -4.97301625	      3.49246765	     -1.52953048	     -0.01583829	      0.68839002	     17.63431368	      4.71589741	      1.75850811	    -24.78001092	      6.81619768	     -4.06913141	     10.61026891	     31.09055327	     -3.74144706	     -1.67460382	    -70.97711702	    -15.10732620	      0.48496202	     25.66762638	      6.79996358	     12.82320346	     -2.38528270
      3.26500000	     -9.51121100	     -4.81701323	      3.23106791	     -1.52240460	     -0.01522272	      0.68904447	     16.86960894	      4.71238027	      2.14761844	    -24.21992758	      6.97074612	     -4.21816946	     10.21197824	     31.90267669	     -3.63628059	     -1.88542219	    -70.80645910	    -14.68834606	      0.29693952	     25.28435143	      6.68745131	     12.64963371	     -2.03494182
      3.27000000	     -9.53972203	     -4.64477663	      2.94712687	     -1.51531883	     -0.01469463	      0.68971831	     16.14370625	      4.68562667	      2.54741322	    -23.66740193	      7.07137270	     -4.39715920	     10.04419124	     32.71239545	     -3.53286007	     -2.10875367	    -70.52983009	    -14.38206415	      0.07330840	     25.16088384	      6.58833941	     12.45818926	     -1.65421352
      3.27500000	     -9.52875079	     -4.46439057	      2.64992520	     -1.50824282	     -0.01418701	      0.69041720	     15.37497865	      4.65418717	      2.99095391	    -23.11595201	      7.17977008	     -4.58889877	      9.77970521	     33.44793719	     -3.44436013	     -2.34125747	    -70.17209418	    -14.00352960	     -0.07799505	     24.88003983	      6.43871150	     12.25968430	     -1.26485234
      3.28000000	     -9.47348425	     -4.32911510	      2.40499269	     -1.50116433	     -0.01376392	      0.69099667	     14.55819249	      4.64408779	      3.37748877	    -22.58306233	      7.44218645	     -4.62694214	      9.03668044	     34.14049613	     -3.38125097	     -2.53248357	    -69.80977714	    -13.35330061	     -0.16853355	     23.73182178	      6.25487749	     12.10142308	     -0.96277454
      3.28500000	     -9.52554304	     -4.11813747	      2.10230042	     -1.49414887	     -0.01346264	      0.69165537	     13.88232089	      4.55019521	      3.79077668	    -22.06658503	      7.55432604	     -4.77470564	      8.88111670	     34.89460732	     -3.27220501	     -2.76126254	    -69.27800900	    -13.06819468	     -0.34371473	     23.53054624	      6.16664255	     11.86494172	     -0.57591067
